{"title":"Delta Farce (2007)[Tabsman DVD RIP][Release]","uid":5115611,"size":690399714,"categoryP":"video","categoryS":"movies","magnet":"?xt=urn:btih:2ece55d8d3015e5810424165548aca228a379a98&amp;dn=Delta+Farce+%282007%29%5BTabsman+DVD+RIP%5D%5BRelease%5D&amp;tr=udp%3A%2F%2Ftracker.openbittorrent.com%3A80&amp;tr=udp%3A%2F%2Fopen.demonii.com%3A1337&amp;tr=udp%3A%2F%2Ftracker.coppersurfer.tk%3A6969&amp;tr=udp%3A%2F%2Fexodus.desync.com%3A6969","seeders":0,"leechers":0,"uploader":"XoLWoX","files":-1,"time":1255045773,"description":"MOVIE/YEAR~&gt;Delta Farce (2007)\n\nPlot Summary~&gt;Action | Adventure | Comedy\nWhen three small town National Guardsmen bound for Iraq are unknowingly dropped into Mexico, their confusion leads them to &quot;liberate&quot; a small village from a band of corrupt Federales\n\nMEDIA Info~&gt;\nGeneral\nComplete name                    : Delta Farce (2007)[Tabsman DVD\nFormat                           : AVI\nFormat/Info                      : Audio Video Interleave\nFile size                        : 658 MiB\nDuration                         : 1h 23mn\nOverall bit rate                 : 1 102 Kbps\n\nVideo\nID                               : 0\nFormat                           : MPEG-4 Visual\nFormat profile                   : Simple@L3\nFormat settings, BVOP            : No\nFormat settings, QPel            : No\nFormat settings, GMC             : No warppoints\nFormat settings, Matrix          : Default (H.263)\nCodec ID                         : XVID\nCodec ID/Hint                    : XviD\nDuration                         : 1h 23mn\nBit rate                         : 833 Kbps\nWidth                            : 768 pixels\nHeight                           : 432 pixels\nDisplay aspect ratio             : 16/9\nFrame rate                       : 23.976 fps\nResolution                       : 24 bits\nColorimetry                      : 4:2:0\nScan type                        : Progressive\nBits/(Pixel*Frame)               : 0.105\nStream size                      : 497 MiB (76%)\nWriting library                  : XviD 1.1.0 (UTC 2005-11-22)\n\nAudio\nID                               : 1\nFormat                           : MPEG Audio\nFormat version                   : Version 1\nFormat profile                   : Layer 3\nCodec ID                         : 55\nCodec ID/Hint                    : MP3\nDuration                         : 1h 23mn\nBit rate mode                    : Constant\nBit rate                         : 256 Kbps\nChannel(s)                       : 2 channels\nSampling rate                    : 48.0 KHz\nResolution                       : 16 bits\nVideo delay                      : 24ms\nStream size                      : 153 MiB (23%)\nAlignment                        : Split accross interleaves\nInterleave, duration             : 24 ms (0.58 video frame)\n\nScreenShots &lt;a href=&quot;\nhttp://bayimg.com/AAeLKAacF&quot; rel=&quot;nofollow&quot; target=&quot;_NEW&quot;&gt;\nhttp://bayimg.com/AAeLKAacF&lt;/a&gt;","torrent":{"xt":"urn:btih:2ece55d8d3015e5810424165548aca228a379a98","amp;dn":"Delta+Farce+%282007%29%5BTabsman+DVD+RIP%5D%5BRelease%5D","amp;tr":["udp%3A%2F%2Ftracker.openbittorrent.com%3A80","udp%3A%2F%2Fopen.demonii.com%3A1337","udp%3A%2F%2Ftracker.coppersurfer.tk%3A6969","udp%3A%2F%2Fexodus.desync.com%3A6969"],"infoHash":"2ece55d8d3015e5810424165548aca228a379a98","infoHashBuffer":{"type":"Buffer","data":[46,206,85,216,211,1,94,88,16,66,65,101,84,138,202,34,138,55,154,152]},"announce":[],"urlList":[]}}